Coordinates
version=1
nRows=10
nColumns=40
inDegrees=yes

Units are S.I. units (second, meters, Newtons, ...)
Angles are in degrees.

endheader
time	pelvis_tilt	pelvis_list	pelvis_rotation	pelvis_tx	pelvis_ty	pelvis_tz	hip_flexion_r	hip_adduction_r	hip_rotation_r	knee_angle_r	knee_angle_r_beta	ankle_angle_r	subtalar_angle_r	mtp_angle_r	hip_flexion_l	hip_adduction_l	hip_rotation_l	knee_angle_l	knee_angle_l_beta	ankle_angle_l	subtalar_angle_l	mtp_angle_l	lumbar_extension	lumbar_bending	lumbar_rotation	arm_flex_r	arm_add_r	arm_rot_r	elbow_flex_r	pro_sup_r	wrist_flex_r	wrist_dev_r	arm_flex_l	arm_add_l	arm_rot_l	elbow_flex_l	pro_sup_l	wrist_flex_l	wrist_dev_l
      4.11414286	     -4.51734403	     -3.91089140	     -6.73780542	      0.90158011	      0.93401481	      0.47882344	     34.77541503	     -4.75505193	     -7.79098815	     52.23399875	     52.23399875	      2.08936389	    -14.02150811	      1.88115605	      9.59627337	     -5.19770473	    -11.70751835	     16.87553174	     16.87553174	     12.37312513	    -10.63817604	     -4.33117846	    -12.16345473	      5.42714471	      1.45504713	     -6.53838571	    -13.45758861	     -4.93386878	     26.16296515	     46.96436508	      0.00000000	      0.00000000	     12.94986035	    -17.49616427	     -6.57528356	     72.82779477	     47.37165349	      0.00000000	      0.00000000
      4.12578571	     -4.71782658	     -3.52090826	     -6.86367273	      0.90070583	      0.93313392	      0.47885433	     35.18086631	     -4.77407692	     -7.85935769	     48.49477548	     48.49477548	      1.82199367	    -13.13696982	      2.40067407	      9.26125884	     -4.74631434	    -11.95091869	     16.77735756	     16.77735756	     12.66469028	    -10.56027419	     -4.50127209	    -11.89198865	      5.08905959	      1.08605510	     -7.85670757	    -13.53858796	     -4.95866209	     25.63956178	     46.97466965	      0.00000000	      0.00000000	     13.84111249	    -18.09922212	     -6.93054607	     73.51864545	     47.41308473	      0.00000000	      0.00000000
      4.13742857	     -4.58117328	     -3.73077894	     -7.02698244	      0.90040765	      0.93320453	      0.47925796	     34.62833302	     -4.33639442	     -8.67023832	     44.00663491	     44.00663491	      1.32286422	    -11.41028569	      2.37697011	      7.95885552	     -4.86748272	    -12.44254623	     15.74881533	     15.74881533	     12.90544820	     -9.64311031	     -4.86651644	    -12.24681507	      5.38659596	      1.94789253	     -9.70777659	    -13.51176385	     -5.07310104	     24.52434054	     47.00679911	      0.00000000	      0.00000000	     14.66464234	    -17.77835766	     -7.45561416	     77.02197294	     47.52343622	      0.00000000	      0.00000000
      4.14907143	     -4.63523999	     -3.66286766	     -7.12000506	      0.90008873	      0.93247814	      0.47967714	     34.25755798	     -4.06060734	     -9.29598994	     39.39709318	     39.39709318	      0.34017826	    -10.01343855	      1.14115784	      7.20734908	     -4.79163215	    -12.99002152	     15.30467216	     15.30467216	     13.05667360	     -8.86664482	     -5.86620475	    -12.25086185	      5.33796164	      1.24451596	    -10.60738760	    -13.49735979	     -5.72596599	     24.02630012	     47.05254676	      0.00000000	      0.00000000	     14.11530194	    -18.48947596	     -8.60509166	     80.88989846	     47.69704094	      0.00000000	      0.00000000
      4.16071429	     -4.76223622	     -3.53137021	     -7.20417981	      0.89981305	      0.93160546	      0.48021064	     33.87619454	     -3.77383867	     -9.92130024	     34.75059721	     34.75059721	     -0.14732631	     -8.22315334	      1.72429991	      6.53095383	     -4.59045768	    -13.21491002	     14.82968163	     14.82968163	     13.34528393	     -8.54437690	     -6.05242452	    -12.04630431	      5.27884543	      1.27070592	    -11.97443675	    -13.49469829	     -5.79286359	     23.54611091	     47.06172462	      0.00000000	      0.00000000	     14.88117757	    -18.68673519	     -8.95365814	     82.17540119	     47.75022013	      0.00000000	      0.00000000
      4.17235714	     -4.65350260	     -3.36888991	     -7.30825515	      0.89994009	      0.93086622	      0.48091540	     33.08367794	     -3.54569380	    -10.75628841	     30.05343858	     30.05343858	     -0.56025813	     -5.81077869	      2.09877853	      5.48452802	     -4.33722734	    -13.67405225	     14.19775770	     14.19775770	     13.66163683	     -7.89529521	     -6.45761193	    -12.15073515	      5.08783168	      1.44368643	    -13.40510962	    -13.45513534	     -5.99522339	     23.34720737	     47.06662666	      0.00000000	      0.00000000	     15.44787350	    -18.80229007	     -9.33664918	     84.36993921	     47.82448690	      0.00000000	      0.00000000
      4.18400000	     -4.64863869	     -3.21960246	     -7.36792952	      0.90017213	      0.92982778	      0.48173381	     32.30891862	     -3.21330534	    -11.55590484	     25.43527604	     25.43527604	     -0.98969713	     -3.50922030	      2.79741473	      4.59586708	     -4.11317923	    -13.96194659	     13.64942932	     13.64942932	     13.96085384	     -7.33186468	     -6.84922147	    -12.07112681	      4.98704211	      1.38006615	    -14.72216007	    -13.42640958	     -6.21043630	     23.31165733	     47.06754481	      0.00000000	      0.00000000	     15.82027817	    -19.00298572	     -9.63044186	     86.17937051	     47.88367223	      0.00000000	      0.00000000
      4.19564286	     -4.55936295	     -3.00479668	     -7.45313916	      0.90070265	      0.92865394	      0.48277805	     31.44574596	     -2.91448298	    -12.38919830	     21.17129009	     21.17129009	     -1.24207892	     -1.09907311	      3.70081581	      3.58437099	     -3.81354090	    -14.33491972	     13.07692539	     13.07692539	     14.27342879	     -6.75793994	     -7.27472047	    -12.06398886	      4.74550366	      1.35648134	    -15.97597040	    -13.35393586	     -6.46814185	     23.46145869	     47.06373378	      0.00000000	      0.00000000	     16.12300218	    -19.23286083	     -9.93487474	     88.07867462	     47.94524610	      0.00000000	      0.00000000
      4.20728571	     -4.34397044	     -2.73396163	     -7.53380446	      0.90152183	      0.92742040	      0.48395787	     30.64645210	     -2.78154494	    -13.47240466	     17.77998632	     17.77998632	     -0.72492098	      1.84675772	      5.90601952	      2.37563543	     -3.44198766	    -14.87061208	     12.39402299	     12.39402299	     14.40937971	     -5.97771612	     -8.28319253	    -12.21953819	      4.41833584	      0.92491796	    -17.37038449	    -13.33054682	     -7.49728700	     25.08667464	     47.03563839	      0.00000000	      0.00000000	     15.60677362	    -19.70645099	    -10.80139583	     91.34258071	     48.08956645	      0.00000000	      0.00000000
      4.21892857	     -4.16920261	     -2.55464602	     -7.58774281	      0.90243392	      0.92608520	      0.48535490	     29.86349768	     -2.44746409	    -14.18551015	     14.79705894	     14.79705894	     -0.54469100	      3.71718214	      7.37763859	      1.25457822	     -3.15062572	    -15.02908154	     11.83543239	     11.83543239	     14.77179863	     -5.66181615	     -8.54070037	    -12.23458952	      4.20870916	      1.01404774	    -18.43882154	    -13.23416840	     -7.74722528	     25.17543270	     47.03057109	      0.00000000	      0.00000000	     15.95604605	    -19.79529759	    -11.00487418	     92.65671547	     48.14005675	      0.00000000	      0.00000000
